<svg xmlns="http://www.w3.org/2000/svg" viewBox="0 0 512 512">
  <rect width="512" height="512" rx="112" fill="#0d5c63"/>
  <rect width="512" height="512" rx="112" fill="url(#g)"/>
  <defs>
    <linearGradient id="g" x1="0" y1="0" x2="1" y2="1">
      <stop offset="0" stop-color="#13868f"/>
      <stop offset="1" stop-color="#073b40"/>
    </linearGradient>
  </defs>
  <path d="M300 150c-58 0-95 42-95 106 0 64 37 106 95 106 14 0 27-3 38-8 9-4 12-15 6-23-12-17-19-37-19-75s7-58 19-75c6-8 3-19-6-23-11-5-24-8-38-8z" fill="#ffffff" opacity="0.95"/>
  <circle cx="170" cy="180" r="20" fill="#e8a33d"/>
  <circle cx="150" cy="270" r="20" fill="#2a7de1"/>
  <circle cx="178" cy="356" r="20" fill="#2f9e6f"/>
  <path d="M170 200 Q140 235 150 250 M150 290 Q150 330 178 336" stroke="#ffffff" stroke-width="9" fill="none" stroke-linecap="round" opacity="0.85"/>
</svg>
